<svg xmlns="http://www.w3.org/2000/svg" viewBox="0 0 194.52 36.63"><defs><style>.a{fill:#231300;}.b{fill:#86693c;}.c{fill:#3b2c21;}</style></defs><path class="a" d="M92.1,16.51a8,8,0,0,0,1.38-2.58,9.71,9.71,0,0,0,.5-3.09,8.42,8.42,0,0,0-.34-2.33,8,8,0,0,0-1-2.18,5.81,5.81,0,0,0-1.58-1.62A3.61,3.61,0,0,0,89,4.08a4.54,4.54,0,0,0-1.56.34,7.75,7.75,0,0,0-1.8.94,7,7,0,0,0-1.47,1.41,2.76,2.76,0,0,0-.61,1.72,2.12,2.12,0,0,0,.27,1.09.79.79,0,0,0,.7.47A1,1,0,0,0,85,9.92V28.06a3,3,0,0,0-.1.72,2.39,2.39,0,0,0,.27,1.11,1.07,1.07,0,0,0,.82.61,5.58,5.58,0,0,0,.7,0h.7a14.32,14.32,0,0,0,1.95-.14,6,6,0,0,0,1.91-.65,4.41,4.41,0,0,0,1.35-1.12,7.54,7.54,0,0,0,1.06-1.7,10.36,10.36,0,0,0,.69-2.08,10.18,10.18,0,0,0,.26-2.29A9.45,9.45,0,0,0,94,19.18,6.25,6.25,0,0,0,92.1,16.51Zm-5-8.4a3.27,3.27,0,0,1,1.8-.54,3,3,0,0,1,1.06.21,2.59,2.59,0,0,1,1,.65,3.44,3.44,0,0,1,.72,1.11,4.28,4.28,0,0,1,.28,1.6,3.71,3.71,0,0,1-.37,1.68A4.54,4.54,0,0,1,90.65,14a4.13,4.13,0,0,1-1.07.76,3.12,3.12,0,0,1-.91.32l-.8-.07-.8,0Zm4.76,17.18a3.83,3.83,0,0,1-1.52,1.28,5.63,5.63,0,0,1-1.79.49c-.61.05-1.1.08-1.45.08v-8.4a6.47,6.47,0,0,0,.87-.06c.3,0,.59-.09.88-.15a5.83,5.83,0,0,1,1.44.44,3.79,3.79,0,0,1,1.28,1,3,3,0,0,1,.71,1.26,5.51,5.51,0,0,1,.23,1.59A4.13,4.13,0,0,1,91.83,25.29Z"/><path class="a" d="M104.74,12a3.56,3.56,0,0,0-.95-.63,2.06,2.06,0,0,0-.74-.21,2.66,2.66,0,0,0-1.7.71,10.44,10.44,0,0,0-1.63,1.81,3.29,3.29,0,0,0-.84-.92,1.59,1.59,0,0,0-.89-.43.86.86,0,0,0-.76.49A2.23,2.23,0,0,0,97,14a2.56,2.56,0,0,0,.18.93,2.08,2.08,0,0,0,.56.79l.18.13V17c0,.05,0,.12,0,.19a1.37,1.37,0,0,0,0,.19,1.76,1.76,0,0,0,0,.19c0,.06,0,.13,0,.18V29.24a2.91,2.91,0,0,0,.38,1.37.84.84,0,0,0,.66.44.87.87,0,0,0,.7-.49,2.72,2.72,0,0,0,.34-1.44V17.94l.66-1.05a13.34,13.34,0,0,1,.8-1.09,6.89,6.89,0,0,1,.84-.86,1.24,1.24,0,0,1,.78-.36.76.76,0,0,1,.54.25,4.4,4.4,0,0,1,.46.57c.14.21.29.41.43.59a.64.64,0,0,0,.5.27.83.83,0,0,0,.69-.44,2.18,2.18,0,0,0,.27-1.15,3.26,3.26,0,0,0-.35-1.56A3.78,3.78,0,0,0,104.74,12Z"/><path class="a" d="M109.15,3.87c-.34,0-.62.22-.86.65a3.24,3.24,0,0,0-.36,1.58,3.12,3.12,0,0,0,.36,1.53c.24.43.52.65.86.65a1.06,1.06,0,0,0,.88-.65,3.12,3.12,0,0,0,.37-1.53A3.24,3.24,0,0,0,110,4.52,1.06,1.06,0,0,0,109.15,3.87Z"/><path class="a" d="M110.19,12.82a2.52,2.52,0,0,0-.42-1.18.81.81,0,0,0-.62-.38.76.76,0,0,0-.63.42,3,3,0,0,0-.41,1.26c0,2.64,0,5.32,0,8.07s0,5.43,0,8.06a2.8,2.8,0,0,0,.38,1.37.84.84,0,0,0,.66.44.89.89,0,0,0,.7-.48,2.89,2.89,0,0,0,.34-1.45q0-3.94,0-8.07T110.19,12.82Z"/><path class="a" d="M123.29,27.08a1.63,1.63,0,0,1-.11-.23v-22a2.61,2.61,0,0,0-.46-1.18.78.78,0,0,0-.62-.36.91.91,0,0,0-.61.45A2.69,2.69,0,0,0,121.1,5c0,.48,0,1.41,0,2.8s0,3.09,0,5.1a3.08,3.08,0,0,0-1.2-.33c-.4,0-.81-.05-1.22-.05a3.64,3.64,0,0,0-1.38.4,5.39,5.39,0,0,0-1.31.91,6.71,6.71,0,0,0-1.21,1.42,7.41,7.41,0,0,0-.88,2,23.25,23.25,0,0,0-.54,2.62,18.7,18.7,0,0,0,0,5.72,10.61,10.61,0,0,0,.7,2.54,5.14,5.14,0,0,0,1.57,2.16,3.3,3.3,0,0,0,2,.69,3.86,3.86,0,0,0,2-.61,5.79,5.79,0,0,0,1.76-1.7,4.59,4.59,0,0,0,.15.44,4.73,4.73,0,0,0,.23.45c.27.44.55.67.83.69a.76.76,0,0,0,.69-.38,2.55,2.55,0,0,0,.33-1.09,3,3,0,0,0-.27-1.45A1.24,1.24,0,0,0,123.29,27.08Zm-2.12-3.38v.58l-.15.38a1.65,1.65,0,0,0-.11.19c-.06.1-.13.2-.19.32l-.2.31a1.45,1.45,0,0,0-.11.23,3.81,3.81,0,0,1-1.64,1.47,3.43,3.43,0,0,1-1.87.17,2.84,2.84,0,0,0-.58-.42l-.51-.84c-.07-.22-.13-.45-.19-.67s-.12-.45-.19-.67c-.07-.87-.12-1.63-.15-2.27a10.42,10.42,0,0,1,.15-2.27,6.3,6.3,0,0,1,.8-2.35,4.38,4.38,0,0,1,1.31-1.41,3,3,0,0,1,1.57-.52,3.22,3.22,0,0,1,1.61.33l.14.17.13.17.16.12c0,1.12,0,2.31,0,3.55Z"/><path class="a" d="M131.22,11.77a.78.78,0,0,0-.62-.38.76.76,0,0,0-.63.42,3,3,0,0,0-.41,1.26c0,1.88,0,3.74,0,5.61s0,3.73,0,5.6c0,.93,0,1.86,0,2.8s0,1.87,0,2.79a7.6,7.6,0,0,1-.26,2,1.84,1.84,0,0,1-.94,1.26.72.72,0,0,1-.25,0,2,2,0,0,1-.39-.3,2.6,2.6,0,0,1-.3-.36,3.18,3.18,0,0,1-.25-.46l-.3-.61a1.06,1.06,0,0,0-.79-.46.78.78,0,0,0-.68.46,2.43,2.43,0,0,0-.26,1.18,3.92,3.92,0,0,0,.15,1,11.2,11.2,0,0,0,1.36,2.12,2.14,2.14,0,0,0,1.64.9,2.06,2.06,0,0,0,1.45-.71,8.62,8.62,0,0,0,.63-.71,3.28,3.28,0,0,0,.51-1,9.73,9.73,0,0,0,.5-1.68,24.56,24.56,0,0,0,.29-2.44l0-17.18A2.48,2.48,0,0,0,131.22,11.77Z"/><path class="a" d="M130.63,3.83a1,1,0,0,0-.87.65,3.31,3.31,0,0,0-.35,1.57,3.27,3.27,0,0,0,.35,1.54.91.91,0,0,0,1.74,0,3.05,3.05,0,0,0,.37-1.54,3.09,3.09,0,0,0-.37-1.57A1,1,0,0,0,130.63,3.83Z"/><path class="a" d="M144.66,25.29a.8.8,0,0,0-.92.09c-.49.47-1,1-1.64,1.45a3.3,3.3,0,0,1-1.79.81,2,2,0,0,1-1.87-.73,5.69,5.69,0,0,1-1.13-2.21.81.81,0,0,0,.59,0c.47-.22,1-.46,1.66-.71a13,13,0,0,0,1.91-.95,8.84,8.84,0,0,0,1.76-1.38,5.53,5.53,0,0,0,1.25-2,6.16,6.16,0,0,0,.35-2.24,7.65,7.65,0,0,0-.37-2.27,6.62,6.62,0,0,0-.9-1.89,2.66,2.66,0,0,0-1.24-1.08,3.52,3.52,0,0,0-2.77.15,8.12,8.12,0,0,0-2.54,2,7.65,7.65,0,0,0-1.64,3.34,16.6,16.6,0,0,0-.5,4.32,17.2,17.2,0,0,0,.59,4.33,8.22,8.22,0,0,0,1.62,3.3,4,4,0,0,0,1.86,1.28,3.69,3.69,0,0,0,1.95,0,6,6,0,0,0,2-.93,15.09,15.09,0,0,0,1.81-1.47,1.92,1.92,0,0,0,.59-1.13,2.6,2.6,0,0,0-.05-1.22A1.43,1.43,0,0,0,144.66,25.29Zm-7.73-3.57a9.86,9.86,0,0,1,.46-3,4.65,4.65,0,0,1,1.4-2.25,7,7,0,0,1,1.11-.69,2.86,2.86,0,0,1,1.32-.36,1.46,1.46,0,0,1,1.1.5,2.74,2.74,0,0,1,.4,1.89,2.08,2.08,0,0,1-.61,1,6,6,0,0,1-1,.78c-.38.22-.73.42-1.08.59s-.62.29-.83.37-.64.29-.95.45l-.93.44A1.45,1.45,0,0,0,136.93,21.72Z"/><path class="a" d="M165.62,4.67c-.39,0-.72.36-1,1.09q-1.17,3.36-2.08,6.89t-1.81,7.1c-.2.81-.41,1.63-.62,2.46s-.41,1.64-.6,2.45c-.37-1.68-.73-3.25-1.06-4.72s-.68-3-1-4.46-.69-3-1-4.64-.76-3.33-1.2-5.21q-.4-1-1-1a.81.81,0,0,0-.67.48,2.61,2.61,0,0,0-.29,1.37,1.34,1.34,0,0,0,0,.19,1.21,1.21,0,0,1,0,.18q1.32,5.76,2.63,11.47t2.66,11.47a2.33,2.33,0,0,0,.44.88.75.75,0,0,0,.55.3.78.78,0,0,0,.58-.34,2.51,2.51,0,0,0,.44-1q1.29-5.62,2.7-11.38t3.22-11a4.38,4.38,0,0,0,.12-.92,2.2,2.2,0,0,0-.3-1.22A.83.83,0,0,0,165.62,4.67Z"/><path class="a" d="M179.37,8.34a10.23,10.23,0,0,0-.94-2,6.4,6.4,0,0,0-1.24-1.52A3.9,3.9,0,0,0,175.88,4a4.36,4.36,0,0,0-1.39-.23,5.29,5.29,0,0,0-2.13.47,10.43,10.43,0,0,0-2,1.17.49.49,0,0,0-.3-.08.78.78,0,0,0-.64.4,3,3,0,0,0-.4,1.24V18.19a1.27,1.27,0,0,0-.66.61,2.06,2.06,0,0,0-.23,1,2.47,2.47,0,0,0,.18.92,1.92,1.92,0,0,0,.55.8.3.3,0,0,0,.18.09v8.19a2.87,2.87,0,0,0,.38,1.36.84.84,0,0,0,.66.44.87.87,0,0,0,.7-.48,2.85,2.85,0,0,0,.35-1.45c0-1.06,0-2.27,0-3.61V22.44c.37.08.75.15,1.12.21a8.5,8.5,0,0,0,1.14.08l.6,0a6.2,6.2,0,0,0,.62-.06,4.67,4.67,0,0,0,2.8-1.49,10.56,10.56,0,0,0,2.06-3.43,12.57,12.57,0,0,0,.78-4.49,15.3,15.3,0,0,0-.21-2.52A14.54,14.54,0,0,0,179.37,8.34Zm-1.57,6.91a7.9,7.9,0,0,1-.77,2,3.56,3.56,0,0,1-1.28,1.37,7.25,7.25,0,0,1-1.46.6,4.35,4.35,0,0,1-1.07.13,4.92,4.92,0,0,1-1.09-.11,5.4,5.4,0,0,1-1.07-.31V8.62a8.19,8.19,0,0,1,1.63-1,3.87,3.87,0,0,1,1.78-.44,2.62,2.62,0,0,1,1.73.67,5.28,5.28,0,0,1,1.38,2.25,9.47,9.47,0,0,1,.47,3A10.05,10.05,0,0,1,177.8,15.25Z"/><path class="a" d="M194.52,5.55a2.82,2.82,0,0,0-.42-1.18.81.81,0,0,0-.62-.37.79.79,0,0,0-.64.42,3.37,3.37,0,0,0-.41,1.26q0,4.65,0,8.9t-.14,8.86c-.65-1.68-1.31-3.29-2-4.85s-1.37-3.07-2.09-4.55-1.46-3-2.2-4.44l-2.29-4.51a1.08,1.08,0,0,0-.76-.46.79.79,0,0,0-.64.42,2.92,2.92,0,0,0-.38,1.17q0,5.67,0,11.49c0,3.88,0,7.71,0,11.49a2.83,2.83,0,0,0,.38,1.36A.83.83,0,0,0,183,31a.89.89,0,0,0,.7-.49,2.74,2.74,0,0,0,.34-1.45c0-1.79,0-3.46,0-5s0-3,0-4.43v-8.5c.74,1.54,1.47,3,2.17,4.51s1.39,3,2.07,4.45,1.34,3,2,4.58,1.27,3.19,1.88,4.9v.08h0c0,.09.07.17.1.25a2.11,2.11,0,0,1,.1.3c.27.44.56.67.87.67a.74.74,0,0,0,.57-.34,2.46,2.46,0,0,0,.42-1v-.32c0-.1,0-.22,0-.36h0l0,0c.14-4,.22-7.88.26-11.63S194.52,9.55,194.52,5.55Z"/><path class="b" d="M78.41,16.43H62.89C60.57,7.07,50.46,0,38.37,0S16.18,7.07,13.85,16.43H1.67A1.54,1.54,0,0,0,0,17.8.83.83,0,0,0,0,18a1.39,1.39,0,0,0,1.22,1.53c6.67,1.37,12.09,6.59,12.09,9.27A1.53,1.53,0,0,0,15,30.12c1,0,1.66-.56,1.71-1.3.1-1.52.07-3.59,0-5.58,0-.94,0-1.87,0-2.7,0-.47.05-.92.09-1.37H60a12.28,12.28,0,0,1,.09,1.37v2.3c0,1.51,0,3.08,0,5.9a1.49,1.49,0,0,0,1.48,1.37h.18A1.63,1.63,0,0,0,63.36,29c1.45-5.62,7.92-9.86,15-9.86a1.55,1.55,0,0,0,1.67-1.37A1.54,1.54,0,0,0,78.41,16.43Zm-65,6.32a23.14,23.14,0,0,0-5-3.58h5.06c0,.45-.08.9-.08,1.37C13.35,21.23,13.36,22,13.37,22.75Zm3.92-6.32A17.89,17.89,0,0,1,25,6.54v9.89Zm19.41,0H28.36V4.76A25.34,25.34,0,0,1,36.7,2.81V16.43Zm11.68,0H40V2.81a25.34,25.34,0,0,1,8.34,1.95Zm3.34,0V6.54a17.86,17.86,0,0,1,7.73,9.89ZM63.4,22.61V20.54c0-.47,0-.92-.09-1.37h4.55A18,18,0,0,0,63.4,22.61Z"/><path class="c" d="M39.58,22.74H36.11c-1.1,0-1.59.49-1.59,1.73V34.65a.74.74,0,0,0,1.47,0V30.12h3.52c2.48,0,3.92-1.4,3.92-3.8S42,22.74,39.58,22.74Zm-.1,6H36V24.66c0-.35.16-.56.5-.56h3a2.11,2.11,0,0,1,2.42,2.25A2.18,2.18,0,0,1,39.48,28.77Z"/><path class="c" d="M53.52,22.64c-.44,0-.75.21-.75.66v4.86c0,2.31.16,4.64.25,5.64-.41-.9-1.28-2.62-2-3.82l-3.93-6.57a1.28,1.28,0,0,0-1.26-.77.9.9,0,0,0-1,1V34.68c0,.43.31.66.75.66a.65.65,0,0,0,.73-.66V29.75c0-2.36-.13-4.59-.22-5.62.36.8,1.14,2.38,1.76,3.41L52,34.42c.39.64.64.92,1.31.92s.93-.39.93-1v-11C54.25,22.85,54,22.64,53.52,22.64Z"/><path class="c" d="M33,22.67l-.28,0a.65.65,0,0,0-.67.46l-3,8.79c-.2.61-.39,1.33-.56,2-.17-.65-.34-1.38-.55-2l-3-8.81a.67.67,0,0,0-.67-.47.92.92,0,0,0-.28.05.72.72,0,0,0-.58.68.74.74,0,0,0,.05.25l4,11a1.13,1.13,0,0,0,2.11,0l4-11a.69.69,0,0,0,0-.24A.73.73,0,0,0,33,22.67Z"/></svg>